<?xml version="1.0" encoding="utf-8"?>
<svg version="1.1" id="Calque_1" xmlns="http://www.w3.org/2000/svg" xmlns:xlink="http://www.w3.org/1999/xlink" x="0px" y="0px"
	 viewBox="0 0 14.1 11.9" enable-background="new 0 0 14.1 11.9" xml:space="preserve">
    <g>
        <defs>
            <rect id="SVGID_1_" y="0" width="14.1" height="11.9"/>
        </defs>
        <clipPath id="SVGID_2_">
            <use xlink:href="#SVGID_1_"  overflow="visible"/>
        </clipPath>
        <path clip-path="url(#SVGID_2_)" fill="#FFFFFF" d="M9.2,1.8H4.9V1.3c0-0.3,0.3-0.6,0.6-0.6h3c0.4,0,0.6,0.3,0.6,0.6V1.8z M13,1.8
            H9.8V1.1c0-0.4-0.4-0.8-0.8-0.8H5.2c-0.4,0-0.8,0.4-0.8,0.8v0.7H1.1c-0.5,0-0.9,0.4-0.9,0.8v8.3c0,0.4,0.4,0.8,0.9,0.8H13
            c0.5,0,0.9-0.4,0.9-0.8V2.6C13.9,2.1,13.5,1.8,13,1.8"/>
        <path clip-path="url(#SVGID_2_)" fill="#FFFFFF" d="M9.2,1.8H4.9V1.3c0-0.3,0.3-0.6,0.6-0.6h3c0.4,0,0.6,0.3,0.6,0.6V1.8z M13,1.8
            H9.8V1.1c0-0.4-0.4-0.8-0.8-0.8H5.2c-0.4,0-0.8,0.4-0.8,0.8v0.7H1.1c-0.5,0-0.9,0.4-0.9,0.8v8.3c0,0.4,0.4,0.8,0.9,0.8H13
            c0.5,0,0.9-0.4,0.9-0.8V2.6C13.9,2.1,13.5,1.8,13,1.8"/>
        <path clip-path="url(#SVGID_2_)" fill="none" stroke="#FFFFFF" stroke-width="0.5" stroke-miterlimit="10" d="M9.2,1.8H4.9V1.3
            c0-0.3,0.3-0.6,0.6-0.6h3c0.4,0,0.6,0.3,0.6,0.6V1.8z M13,1.8H9.8V1.1c0-0.4-0.4-0.8-0.8-0.8H5.2c-0.4,0-0.8,0.4-0.8,0.8v0.7H1.1
            c-0.5,0-0.9,0.4-0.9,0.8v8.3c0,0.4,0.4,0.8,0.9,0.8H13c0.5,0,0.9-0.4,0.9-0.8V2.6C13.9,2.1,13.5,1.8,13,1.8z"/>
    </g>
</svg>
