<?xml version="1.0" encoding="utf-8"?>
<svg version="1.1" id="Calque_1" xmlns="http://www.w3.org/2000/svg" xmlns:xlink="http://www.w3.org/1999/xlink" x="0px" y="0px"
	 viewBox="0 0 13.5 13.8" enable-background="new 0 0 13.5 13.8" xml:space="preserve">
    <g>
        <defs>
            <rect id="SVGID_1_" y="0" width="13.5" height="13.8"/>
        </defs>
        <clipPath id="SVGID_2_">
            <use xlink:href="#SVGID_1_"  overflow="visible"/>
        </clipPath>
        <path clip-path="url(#SVGID_2_)" fill="#FFFFFF" d="M13.2,13.5l-0.5-2.8c0-0.5-0.4-0.9-0.9-0.9L9.8,9.3L9.2,8.9L8.3,8.6L8.2,7.8
            c0.6-0.3,1-1,1.4-1.9c0,0.1,0.1,0.2,0.1,0.2c0.2,0.1,0.5-0.2,0.6-0.7c0.2-0.4,0.1-0.8-0.1-0.9c0,0,0,0,0,0l0-0.9
            c0-2.4-1.6-2.5-1.6-2.5S7.3,0,6.4,0.3c-1.8,0.6-3,1.5-3,3.4l0,0.9c0,0,0,0,0,0C3.2,4.6,3.1,5.1,3.3,5.5c0.2,0.4,0.4,0.7,0.6,0.7
            C4,6.1,4,6.1,4,5.9c0.3,0.9,0.8,1.6,1.4,1.9L5.3,8.6L4.4,8.9L3.7,9.3l-2,0.5c-0.5,0-0.9,0.4-0.9,0.9l-0.5,2.8H13.2z"/>
        <path clip-path="url(#SVGID_2_)" fill="none" stroke="#FFFFFF" stroke-width="0.5" stroke-miterlimit="10" d="M13.2,13.5l-0.5-2.8
            c0-0.5-0.4-0.9-0.9-0.9L9.8,9.3L9.2,8.9L8.3,8.6L8.2,7.8c0.6-0.3,1-1,1.4-1.9c0,0.1,0.1,0.2,0.1,0.2c0.2,0.1,0.5-0.2,0.6-0.7
            c0.2-0.4,0.1-0.8-0.1-0.9c0,0,0,0,0,0l0-0.9c0-2.4-1.6-2.5-1.6-2.5S7.3,0,6.4,0.3c-1.8,0.6-3,1.5-3,3.4l0,0.9c0,0,0,0,0,0
            C3.2,4.6,3.1,5.1,3.3,5.5c0.2,0.4,0.4,0.7,0.6,0.7C4,6.1,4,6.1,4,5.9c0.3,0.9,0.8,1.6,1.4,1.9L5.3,8.6L4.4,8.9L3.7,9.3l-2,0.5
            c-0.5,0-0.9,0.4-0.9,0.9l-0.5,2.8H13.2z"/>
    </g>
</svg>
