<?xml version="1.0" encoding="UTF-8" standalone="no"?>
<svg width="81px" height="23px" viewBox="0 0 81 23" version="1.1" xmlns="http://www.w3.org/2000/svg" xmlns:xlink="http://www.w3.org/1999/xlink" xmlns:sketch="http://www.bohemiancoding.com/sketch/ns">
    <!-- Generator: Sketch 3.3 (11970) - http://www.bohemiancoding.com/sketch -->
    <title>Slice 1</title>
    <desc>Created with Sketch.</desc>
    <defs></defs>
    <g id="Page-1" stroke="none" stroke-width="1" fill="none" fill-rule="evenodd" sketch:type="MSPage">
        <g id="c14_case_menu_unlocked-hover" sketch:type="MSLayerGroup" fill="#FFFFFF">
            <g id="rolloversvg" sketch:type="MSShapeGroup">
                <path d="M76.7,16.8 C76.9,16.9 77.2,17.1 77.6,17.3 L78.3,17.6 C78.9,17.9 79.3,18.2 79.6,18.6 C79.8,19 80,19.5 80,20.1 C80,20.8 79.7,21.3 79.2,21.8 C78.7,22.3 77.9,22.5 77,22.5 C76.2,22.5 75.5,22.3 75,21.9 L75.4,20.8 C75.6,21 75.9,21.1 76.3,21.2 C76.6,21.3 76.9,21.4 77.2,21.4 C77.7,21.4 78.1,21.3 78.3,21 C78.6,20.7 78.7,20.4 78.7,20 C78.7,19.7 78.6,19.4 78.5,19.2 C78.3,18.9 77.9,18.7 77.3,18.4 L76.6,18.1 C76,17.8 75.6,17.5 75.3,17.1 C75.1,16.7 74.9,16.2 74.9,15.7 C74.9,15 75.1,14.5 75.6,14 C76.1,13.6 76.7,13.3 77.4,13.3 C78.4,13.3 79.1,13.5 79.5,13.8 L79.1,14.9 C78.9,14.8 78.7,14.7 78.4,14.6 C78.1,14.5 77.8,14.4 77.5,14.4 C77.1,14.4 76.8,14.5 76.5,14.8 C76.3,15 76.1,15.3 76.1,15.7 C76.1,15.9 76.1,16.1 76.2,16.3 C76.4,16.5 76.6,16.7 76.7,16.8 L76.7,16.8 Z M70,17.1 L73,17.1 L73,18.1 L70,18.1 L70,21.3 L74.1,21.3 L74.1,22.4 L68.8,22.4 L68.8,13.5 L74.1,13.5 L74.1,14.6 L70,14.6 L70,17.1 L70,17.1 Z M72.7,10.8 L71.3,12.8 L70.4,12.8 L71.4,10.8 L72.7,10.8 L72.7,10.8 Z M70.8,10.2 C70,10.2 69.3,10 68.8,9.6 L69.2,8.5 C69.4,8.7 69.7,8.8 70.1,8.9 C70.4,9 70.7,9.1 71,9.1 C71.5,9.1 71.9,9 72.1,8.7 C72.4,8.4 72.5,8.1 72.5,7.7 C72.5,7.4 72.4,7.1 72.3,6.9 C72.1,6.6 71.7,6.4 71.1,6.1 L70.4,5.8 C69.8,5.5 69.4,5.2 69.1,4.8 C68.9,4.4 68.7,3.9 68.7,3.4 C68.7,2.7 68.9,2.2 69.4,1.7 C69.9,1.3 70.5,1 71.2,1 C72.2,1 72.9,1.2 73.3,1.5 L72.9,2.6 C72.7,2.5 72.5,2.4 72.2,2.3 C71.9,2.2 71.6,2.1 71.3,2.1 C70.9,2.1 70.6,2.2 70.3,2.5 C70,2.8 69.9,3 69.9,3.4 C69.9,3.6 69.9,3.8 70,4 C70.1,4.2 70.2,4.3 70.4,4.5 C70.6,4.6 70.9,4.8 71.3,5 L72,5.3 C72.6,5.6 73,5.9 73.3,6.3 C73.6,6.7 73.7,7.2 73.7,7.8 C73.7,8.5 73.4,9 72.9,9.5 C72.4,9.9 71.7,10.2 70.8,10.2 L70.8,10.2 Z M65.1,10 L63.9,10 L63.9,2.2 L61.1,2.2 L61.1,1.1 L68.1,1.1 L68.1,2.2 L65.1,2.2 L65.1,10 L65.1,10 Z M55.1,3.6 L55.1,10 L53.9,10 L53.9,1.1 L54.4,1.1 L58.9,7.3 L58.9,1.1 L60.1,1.1 L60.1,10.2 L59.7,10.2 L55.1,3.6 L55.1,3.6 Z M54,22.5 L52.8,22.5 L52.8,13.6 L54,13.6 L54,22.5 L54,22.5 Z M48.4,4.6 L51.4,4.6 L51.4,5.6 L48.4,5.6 L48.4,8.8 L52.5,8.8 L52.5,9.9 L47.2,9.9 L47.2,1 L52.5,1 L52.5,2.1 L48.4,2.1 L48.4,4.6 L48.4,4.6 Z M49,21 C49.3,20.7 49.5,20.2 49.5,19.6 L49.5,13.5 L50.7,13.5 L50.7,19.7 C50.7,20.6 50.4,21.3 49.9,21.8 C49.3,22.3 48.6,22.6 47.6,22.6 C46.6,22.6 45.8,22.4 45.3,21.9 C44.8,21.4 44.5,20.7 44.5,19.8 L44.5,13.6 L45.7,13.6 L45.7,19.7 C45.7,20.2 45.9,20.7 46.2,21 C46.5,21.4 47,21.5 47.6,21.5 C48.2,21.6 48.7,21.4 49,21 L49,21 Z M44,4.3 L42,10.2 L41.7,10.2 L39.7,4.3 L38.7,10 L37.5,10 L39.2,1.1 L39.8,1.1 L41.9,7.6 L43.9,1.1 L44.4,1.1 L46.2,10 L45,10 L44,4.3 L44,4.3 Z M39.2,13.4 C40.4,13.4 41.4,13.8 42.1,14.6 C42.8,15.4 43.1,16.5 43.1,18 C43.1,19.5 42.8,20.6 42.1,21.5 C41.4,22.3 40.5,22.7 39.2,22.7 C38.1,22.7 37.2,22.3 36.6,21.4 C36,20.5 35.6,19.4 35.6,18 C35.6,16.7 35.9,15.6 36.6,14.8 C37.3,13.8 38.1,13.4 39.2,13.4 L39.2,13.4 Z M36.9,18 C36.9,19 37.1,19.9 37.5,20.6 C37.9,21.3 38.5,21.6 39.2,21.6 C40,21.6 40.7,21.3 41.1,20.7 C41.5,20.1 41.8,19.2 41.8,18 C41.8,15.7 40.9,14.5 39.2,14.5 C38.4,14.5 37.9,14.8 37.5,15.4 C37.1,16 36.9,16.9 36.9,18 L36.9,18 Z M33.4,10.2 C32.4,10.2 31.6,10 31.1,9.5 C30.6,9 30.3,8.3 30.3,7.4 L30.3,1.2 L31.5,1.2 L31.5,7.3 C31.5,7.8 31.7,8.3 32,8.6 C32.3,9 32.8,9.1 33.4,9.1 C34,9.1 34.5,8.9 34.8,8.6 C35.1,8.3 35.3,7.8 35.3,7.2 L35.3,1.1 L36.5,1.1 L36.5,7.3 C36.5,8.2 36.2,8.9 35.7,9.4 C35.1,9.9 34.3,10.2 33.4,10.2 L33.4,10.2 Z M34.3,16 C34.3,16.6 34.1,17.1 33.8,17.5 C33.5,18 33,18.2 32.6,18.3 L35.2,22.4 L33.8,22.4 L31.4,18.6 C31.1,18.6 30.7,18.6 30.1,18.5 L30.1,22.4 L28.9,22.4 L28.9,13.5 L29.8,13.5 L31.1,13.5 C33.2,13.5 34.3,14.3 34.3,16 L34.3,16 Z M30.1,14.7 L30.1,17.6 C30.4,17.6 30.7,17.7 31,17.7 C31.7,17.7 32.3,17.6 32.6,17.3 C32.9,17.1 33.1,16.6 33.1,16 C33.1,15.5 32.9,15.1 32.6,14.9 C32.2,14.7 31.7,14.6 30.9,14.6 C30.7,14.6 30.4,14.6 30.1,14.7 L30.1,14.7 Z M26.2,9.1 C27,9.1 27.7,8.8 28.1,8.2 L28.8,9.1 C28.1,9.8 27.2,10.2 26.1,10.2 C24.9,10.2 24,9.8 23.3,8.9 C22.6,8.1 22.3,6.9 22.3,5.6 C22.3,4.3 22.7,3.2 23.4,2.3 C24.1,1.4 25,1 26.2,1 C27.2,1 27.9,1.2 28.5,1.5 L28.1,2.5 C27.7,2.2 27.1,2.1 26.3,2.1 C25.5,2.1 24.9,2.4 24.4,3.1 C23.9,3.8 23.7,4.6 23.7,5.7 C23.7,6.7 23.9,7.5 24.4,8.2 C24.8,8.7 25.5,9.1 26.2,9.1 L26.2,9.1 Z M27.4,14.7 L23.3,14.7 L23.3,17.2 L26.3,17.2 L26.3,18.2 L23.3,18.2 L23.3,21.4 L27.4,21.4 L27.4,22.5 L22.1,22.5 L22.1,13.6 L27.4,13.6 L27.4,14.7 L27.4,14.7 Z M17.5,10.2 C16.4,10.2 15.5,9.8 14.9,8.9 C14.3,8 13.9,6.9 13.9,5.5 C13.9,4.2 14.2,3.1 14.9,2.3 C15.5,1.4 16.4,1 17.5,1 C18.7,1 19.7,1.4 20.4,2.2 C21.1,3 21.4,4.1 21.4,5.6 C21.4,7.1 21.1,8.2 20.4,9.1 C19.7,9.7 18.8,10.2 17.5,10.2 L17.5,10.2 Z M17.5,2 C16.7,2 16.2,2.3 15.8,2.9 C15.4,3.5 15.2,4.4 15.2,5.4 C15.2,6.4 15.4,7.3 15.8,8 C16.2,8.7 16.8,9 17.5,9 C18.3,9 19,8.7 19.4,8.1 C19.8,7.5 20.1,6.6 20.1,5.4 C20.1,3.1 19.2,2 17.5,2 L17.5,2 Z M9.3,17.1 L12.3,17.1 L12.3,18.1 L9.3,18.1 L9.3,21.3 L13.4,21.3 L13.4,22.4 L8.1,22.4 L8.1,13.5 L13.4,13.5 L13.4,14.6 L9.3,14.6 L9.3,17.1 L9.3,17.1 Z M12,10.8 L10.6,12.8 L9.7,12.8 L10.7,10.8 L12,10.8 L12,10.8 Z M8.5,10 L6.7,10 L6.7,1.1 C7.8,1.1 8.6,1 8.9,1 C10.1,1 11.1,1.4 11.9,2.1 C12.6,2.9 13,3.9 13,5.1 C12.9,8.4 11.4,10 8.5,10 L8.5,10 Z M11.7,5.3 C11.7,3.2 10.8,2.1 8.8,2.1 C8.7,2.1 8.4,2.1 7.9,2.2 L7.9,8.9 C8.2,8.9 8.5,9 8.9,9 C9.8,9 10.4,8.7 10.9,8 C11.4,7.3 11.7,6.4 11.7,5.3 L11.7,5.3 Z M2.2,22.5 L0.4,22.5 L0.4,13.6 C1.5,13.6 2.3,13.5 2.6,13.5 C3.8,13.5 4.8,13.9 5.6,14.6 C6.3,15.4 6.7,16.4 6.7,17.6 C6.7,20.9 5.2,22.5 2.2,22.5 L2.2,22.5 Z M5.4,17.8 C5.4,15.7 4.4,14.6 2.5,14.6 C2.4,14.6 2.1,14.6 1.6,14.7 L1.6,21.4 C1.9,21.4 2.2,21.5 2.6,21.5 C3.5,21.5 4.1,21.2 4.6,20.5 C5.1,19.8 5.4,18.9 5.4,17.8 L5.4,17.8 Z M17.6,20.1 L19.8,13.5 L21.1,13.5 L17.9,22.6 L17.3,22.6 L14,13.5 L15.4,13.5 L17.6,20.1 L17.6,20.1 Z M57.3,21.4 L61.3,21.4 L61.3,22.5 L56,22.5 L56,13.6 L57.2,13.6 L57.2,21.4 L57.3,21.4 Z M63.6,21.4 L67.6,21.4 L67.6,22.5 L62.3,22.5 L62.3,13.6 L63.5,13.6 L63.5,21.4 L63.6,21.4 Z" id="path-1"></path>
            </g>
        </g>
    </g>
</svg>