<?xml version="1.0" encoding="utf-8"?>
<!-- Generator: Adobe Illustrator 18.1.1, SVG Export Plug-In . SVG Version: 6.00 Build 0)  -->
<svg version="1.1" id="Layer_1" xmlns="http://www.w3.org/2000/svg" xmlns:xlink="http://www.w3.org/1999/xlink" x="0px" y="0px"
	 viewBox="113.5 133.3 269.8 235.4" enable-background="new 113.5 133.3 269.8 235.4" xml:space="preserve">
<g>
	<g>
		<path fill="#FFFFFF" d="M383.3,160.4c-9.4,5.2-20.8,8.3-31.2,9.4c11.5-7.3,19.8-18.8,24-32.3c-10.4,6.2-21.9,11.5-35.4,14.6
			c-10.4-11.5-24-18.8-39.6-18.8c-30.2,0-55.2,26-55.2,59.4c0,4.2,0,9.4,1,13.5c-45.8-2.1-86.5-26-113.5-61.5
			c-5.2,8.3-7.3,18.8-7.3,30.2c0,20.8,9.4,38.5,24,49c-9.4,0-17.7-3.1-25-7.3v1c0,28.1,18.8,52.1,43.8,58.3c-4.2,1-9.4,2.1-14.6,2.1
			c-3.1,0-7.3,0-10.4-1c7.3,24,27.1,40.6,51,40.6c-18.8,15.6-42.7,25-67.7,25c-4.2,0-8.3,0-13.5-1c24,16.7,53.1,27.1,84.4,27.1
			c101,0,156.3-89.6,156.3-167.7c0-2.1,0-5.2,0-7.3C366.7,183.3,376,172.9,383.3,160.4z"/>
	</g>
</g>
</svg>
