<?xml version="1.0" encoding="utf-8"?>
<!-- Generator: Adobe Illustrator 18.1.1, SVG Export Plug-In . SVG Version: 6.00 Build 0)  -->
<svg version="1.1" id="Calque_5" xmlns="http://www.w3.org/2000/svg" xmlns:xlink="http://www.w3.org/1999/xlink" x="0px" y="0px"
	 viewBox="0 0 8.4 10.6" enable-background="new 0 0 8.4 10.6" xml:space="preserve">
<path fill="#1A171B" d="M7.6,4.3H0.8C0.3,4.3,0,4.6,0,5v4.8c0,0.4,0.3,0.7,0.8,0.7h6.9c0.4,0,0.8-0.3,0.8-0.7V5
	C8.4,4.6,8,4.3,7.6,4.3z"/>
<path fill="#1A171B" d="M5.8,2.7v0.6h1.1V2.7C6.9,1.2,5.7,0,4.2,0C2.7,0,1.4,1.2,1.4,2.7v1.8h1.1V2.7c0-0.9,0.7-1.6,1.6-1.6
	C5.1,1.1,5.8,1.9,5.8,2.7z"/>
</svg>
