<?xml version="1.0" encoding="utf-8"?>
<!-- Generator: Adobe Illustrator 18.1.1, SVG Export Plug-In . SVG Version: 6.00 Build 0)  -->
<svg version="1.1" id="Calque_1" xmlns="http://www.w3.org/2000/svg" xmlns:xlink="http://www.w3.org/1999/xlink" x="0px" y="0px"
	 viewBox="0 0 14 10.2" enable-background="new 0 0 14 10.2" xml:space="preserve">
<polygon fill="#2296A6" points="7.1,0 2.5,3 0,3 0,7.3 2.5,7.3 7.1,10.2 "/>
<g>
	<defs>
		<rect id="SVGID_1_" y="0" width="14" height="10.2"/>
	</defs>
	<clipPath id="SVGID_2_">
		<use xlink:href="#SVGID_1_"  overflow="visible"/>
	</clipPath>
	<path display="none" clip-path="url(#SVGID_2_)" fill="#2296A6" d="M11.8,0.3l-0.2-0.1l-0.8,0.8L11,1.1c2.4,2.3,2.4,6,0,8.3
		l-0.2,0.1l0.8,0.8l0.2-0.1C14.7,7.4,14.7,3,11.8,0.3"/>
	<path clip-path="url(#SVGID_2_)" fill="#2296A6" d="M9.4,2.1L9.3,2L8.5,2.7l0.2,0.2c0.7,0.6,1.1,1.4,1.1,2.3S9.3,6.9,8.6,7.5
		L8.5,7.7l0.8,0.7l0.2-0.2c0.9-0.8,1.4-1.9,1.4-3.1S10.3,3,9.4,2.1"/>
</g>
</svg>