<?xml version="1.0" encoding="UTF-8" standalone="no"?>
<svg width="68px" height="23px" viewBox="0 0 68 23" version="1.1" xmlns="http://www.w3.org/2000/svg" xmlns:xlink="http://www.w3.org/1999/xlink" xmlns:sketch="http://www.bohemiancoding.com/sketch/ns">
    <!-- Generator: Sketch 3.3 (11970) - http://www.bohemiancoding.com/sketch -->
    <title>Slice 1</title>
    <desc>Created with Sketch.</desc>
    <defs></defs>
    <g id="Page-1" stroke="none" stroke-width="1" fill="none" fill-rule="evenodd" sketch:type="MSPage">
        <g id="c14_case_menu_starred-hover" sketch:type="MSLayerGroup" fill="#FFFFFF">
            <g id="rollover" sketch:type="MSShapeGroup">
                <path d="M64.4,4.3 C64.6,4.4 64.9,4.6 65.3,4.8 L66,5.1 C66.6,5.4 67,5.7 67.3,6.1 C67.6,6.5 67.7,7 67.7,7.6 C67.7,8.3 67.4,8.8 66.9,9.3 C66.4,9.8 65.6,10 64.7,10 C63.9,10 63.2,9.8 62.7,9.4 L63.1,8.3 C63.3,8.5 63.6,8.6 64,8.7 C64.3,8.8 64.6,8.9 64.9,8.9 C65.4,8.9 65.8,8.8 66,8.5 C66.3,8.2 66.4,7.9 66.4,7.5 C66.4,7.2 66.3,6.9 66.2,6.7 C66,6.4 65.6,6.2 65,5.9 L64.3,5.6 C63.7,5.3 63.3,5 63,4.6 C62.8,4.2 62.6,3.7 62.6,3.2 C62.6,2.5 62.8,2 63.3,1.5 C63.8,1.1 64.4,0.8 65.1,0.8 C66.1,0.8 66.8,1 67.2,1.3 L66.8,2.4 C66.6,2.3 66.4,2.2 66.1,2.1 C65.8,2 65.5,1.9 65.2,1.9 C64.8,1.9 64.5,2 64.2,2.3 C63.9,2.6 63.8,2.8 63.8,3.2 C63.8,3.4 63.8,3.6 63.9,3.8 C64.2,4 64.3,4.2 64.4,4.3 L64.4,4.3 Z M59.1,10 L57.9,10 L57.9,2.2 L55.1,2.2 L55.1,1.1 L62.1,1.1 L62.1,2.2 L59.1,2.2 L59.1,10 L59.1,10 Z M54.7,15 C54.5,14.9 54.3,14.8 54,14.7 C53.7,14.6 53.4,14.5 53.1,14.5 C52.7,14.5 52.4,14.6 52.1,14.9 C51.9,15.1 51.7,15.4 51.7,15.8 C51.7,16 51.7,16.2 51.8,16.4 C51.9,16.6 52,16.7 52.2,16.9 C52.4,17 52.7,17.2 53.1,17.4 L53.8,17.7 C54.4,18 54.8,18.3 55.1,18.7 C55.3,19.1 55.5,19.6 55.5,20.2 C55.5,20.9 55.2,21.4 54.7,21.9 C54.2,22.4 53.4,22.6 52.5,22.6 C51.7,22.6 51,22.4 50.5,22 L50.9,20.9 C51.1,21.1 51.4,21.2 51.8,21.3 C52.1,21.4 52.4,21.5 52.7,21.5 C53.2,21.5 53.6,21.4 53.8,21.1 C54.1,20.8 54.2,20.5 54.2,20.1 C54.2,19.8 54.1,19.5 54,19.3 C53.8,19 53.4,18.8 52.8,18.5 L52.1,18.2 C51.5,17.9 51.1,17.6 50.8,17.2 C50.6,16.8 50.4,16.3 50.4,15.8 C50.4,15.1 50.6,14.6 51.1,14.1 C51.6,13.7 52.2,13.4 52.9,13.4 C53.9,13.4 54.6,13.6 55,13.9 L54.7,15 L54.7,15 Z M49.1,3.6 L49.1,10 L47.9,10 L47.9,1.1 L48.4,1.1 L52.9,7.3 L52.9,1.1 L54.1,1.1 L54.1,10.2 L53.7,10.2 L49.1,3.6 L49.1,3.6 Z M48.9,22.5 L47.7,22.5 L47.7,13.6 L48.9,13.6 L48.9,22.5 L48.9,22.5 Z M42.4,4.6 L45.4,4.6 L45.4,5.6 L42.4,5.6 L42.4,8.8 L46.5,8.8 L46.5,9.9 L41.2,9.9 L41.2,1 L46.5,1 L46.5,2.1 L42.4,2.1 L42.4,4.6 L42.4,4.6 Z M45.7,16 C45.7,16.6 45.5,17.1 45.2,17.5 C44.9,18 44.4,18.2 44,18.3 L46.6,22.4 L45.2,22.4 L42.8,18.6 C42.5,18.6 42.1,18.6 41.5,18.5 L41.5,22.4 L40.3,22.4 L40.3,13.5 L41.2,13.5 L42.5,13.5 C44.6,13.5 45.7,14.3 45.7,16 L45.7,16 Z M41.5,14.7 L41.5,17.6 C41.8,17.6 42.1,17.7 42.4,17.7 C43.1,17.7 43.7,17.6 44,17.3 C44.3,17.1 44.5,16.6 44.5,16 C44.5,15.5 44.3,15.1 44,14.9 C43.6,14.7 43.1,14.6 42.3,14.6 C42.1,14.6 41.8,14.6 41.5,14.7 L41.5,14.7 Z M38,4.3 L36,10.2 L35.7,10.2 L33.7,4.3 L32.7,10 L31.5,10 L33.2,1.1 L33.8,1.1 L35.9,7.6 L37.9,1.1 L38.4,1.1 L40.2,10 L39,10 L38,4.3 L38,4.3 Z M34.9,13.4 C36.1,13.4 37.1,13.8 37.8,14.6 C38.5,15.4 38.8,16.5 38.8,18 C38.8,19.5 38.5,20.6 37.8,21.5 C37.1,22.3 36.2,22.7 34.9,22.7 C33.8,22.7 32.9,22.3 32.3,21.4 C31.7,20.5 31.3,19.4 31.3,18 C31.3,16.7 31.6,15.6 32.3,14.8 C32.9,13.8 33.8,13.4 34.9,13.4 L34.9,13.4 Z M33.2,20.5 C33.6,21.2 34.2,21.5 34.9,21.5 C35.7,21.5 36.4,21.2 36.8,20.6 C37.2,20 37.5,19.1 37.5,17.9 C37.5,15.6 36.6,14.4 34.9,14.4 C34.1,14.4 33.6,14.7 33.2,15.3 C32.8,15.9 32.6,16.8 32.6,17.8 C32.6,19 32.8,19.8 33.2,20.5 L33.2,20.5 Z M26.9,22.6 L23.6,13.5 L25,13.5 L27.3,20.1 L29.5,13.5 L30.8,13.5 L27.6,22.6 L26.9,22.6 L26.9,22.6 Z M27.4,10.2 C26.4,10.2 25.6,10 25.1,9.5 C24.6,9 24.3,8.3 24.3,7.4 L24.3,1.2 L25.5,1.2 L25.5,7.3 C25.5,7.8 25.7,8.3 26,8.6 C26.3,9 26.8,9.1 27.4,9.1 C28,9.1 28.5,8.9 28.8,8.6 C29.1,8.3 29.3,7.8 29.3,7.2 L29.3,1.1 L30.5,1.1 L30.5,7.3 C30.5,8.2 30.2,8.9 29.7,9.4 C29.1,9.9 28.3,10.2 27.4,10.2 L27.4,10.2 Z M20.2,9.1 C21,9.1 21.7,8.8 22.1,8.2 L22.8,9.1 C22.1,9.8 21.2,10.2 20.1,10.2 C18.9,10.2 18,9.8 17.3,8.9 C16.6,8.1 16.3,6.9 16.3,5.6 C16.3,4.3 16.7,3.2 17.4,2.3 C18.1,1.4 19,1 20.2,1 C21.2,1 21.9,1.2 22.5,1.5 L22.1,2.5 C21.7,2.2 21.1,2.1 20.3,2.1 C19.5,2.1 18.9,2.4 18.4,3.1 C17.9,3.8 17.7,4.6 17.7,5.7 C17.7,6.7 17.9,7.5 18.4,8.2 C18.8,8.7 19.5,9.1 20.2,9.1 L20.2,9.1 Z M11.5,10.2 C10.4,10.2 9.5,9.8 8.9,8.9 C8.3,8 7.9,6.9 7.9,5.5 C7.9,4.2 8.2,3.1 8.9,2.3 C9.5,1.4 10.4,1 11.5,1 C12.7,1 13.7,1.4 14.4,2.2 C15.1,3 15.4,4.1 15.4,5.6 C15.4,7.1 15.1,8.2 14.4,9.1 C13.7,9.7 12.8,10.2 11.5,10.2 L11.5,10.2 Z M11.5,2 C10.7,2 10.2,2.3 9.8,2.9 C9.4,3.5 9.2,4.4 9.2,5.4 C9.2,6.4 9.4,7.3 9.8,8 C10.2,8.7 10.8,9 11.5,9 C12.3,9 13,8.7 13.4,8.1 C13.8,7.5 14.1,6.6 14.1,5.4 C14.1,3.1 13.2,2 11.5,2 L11.5,2 Z M2.5,10 L0.7,10 L0.7,1.1 C1.8,1.1 2.6,1 2.9,1 C4.1,1 5.1,1.4 5.9,2.1 C6.6,2.9 7,3.9 7,5.1 C6.9,8.4 5.4,10 2.5,10 L2.5,10 Z M5.7,5.3 C5.7,3.2 4.8,2.1 2.8,2.1 C2.7,2.1 2.4,2.1 1.9,2.2 L1.9,8.9 C2.2,8.9 2.5,9 2.9,9 C3.8,9 4.4,8.7 4.9,8 C5.4,7.3 5.7,6.4 5.7,5.3 L5.7,5.3 Z M18.4,14.7 L14.1,14.7 L14.1,17.2 L17.2,17.2 L17.2,18.2 L14.1,18.2 L14.1,22.5 L12.9,22.5 L12.9,13.6 L18.4,13.6 L18.4,14.7 L18.4,14.7 Z M21.2,13.4 L24.6,22.5 L23.2,22.5 L22.6,20.6 L19.3,20.6 L18.6,22.5 L17.2,22.5 L20.8,13.4 L21.2,13.4 L21.2,13.4 Z M22.2,19.7 L20.9,15.8 L19.5,19.7 L22.2,19.7 L22.2,19.7 Z" id="path-1"></path>
            </g>
        </g>
    </g>
</svg>