<?xml version="1.0" encoding="utf-8"?><!-- Generator: Adobe Illustrator 18.1.1, SVG Export Plug-In . SVG Version: 6.00 Build 0)  -->
    <svg version="1.1" id="Calque_1" xmlns:sketch="http://www.bohemiancoding.com/sketch/ns"
         xmlns="http://www.w3.org/2000/svg" xmlns:xlink="http://www.w3.org/1999/xlink" x="0px" y="0px" viewBox="-295 387 20 20"
         enable-background="new -295 387 20 20" xml:space="preserve">
    <path id="Shape" fill="#2296A6" d="M-288,401h2v-8h-2V401L-288,401z M-285,387c-5.5,0-10,4.5-10,10s4.5,10,10,10s10-4.5,10-10
        S-279.5,387-285,387L-285,387z M-285,405c-4.4,0-8-3.6-8-8s3.6-8,8-8s8,3.6,8,8S-280.6,405-285,405L-285,405z M-284,401h2v-8h-2V401
        L-284,401z"/>
</svg>
